<svg version="1" xmlns="http://www.w3.org/2000/svg" width="933.333" height="933.333" viewBox="0 0 700.000000 700.000000"><path d="M327 13.2c-38.4 22.3-69.3 40.1-73.3 42.2-2.1 1.1-4 2.9-4.3 4.1-.2 1.1-.3 27.6-.2 58.9l.3 56.9 25 14.4c22.1 12.8 30.1 17.4 43.5 25.1 1.9 1 9.9 5.7 17.8 10.2l14.2 8.3-6.6 3.8c-3.6 2.2-6.8 3.9-7.1 3.9-.2 0-1.6.8-3.1 1.9-1.5 1-13.5 8-26.7 15.6-27.3 15.6-32.9 18.8-47.2 27.3l-10.3 6-.2-58.5-.3-58.6-26.5-15.3c-14.6-8.5-27.6-16-29-16.7-1.4-.8-11.1-6.4-21.6-12.5-10.6-6.1-20.2-11.6-21.6-12.2-2.1-1-3.7-.4-13.3 5.3-15.2 8.8-50 29-55.5 32-2.5 1.4-11 6.3-19 10.9l-14.5 8.4-.3 175.2-.2 175.1 8.7 5.2c4.9 2.9 10.8 6.3 13.3 7.7 2.5 1.4 10.1 5.8 17 9.7 25.6 14.9 51.7 29.9 56.8 32.7l5.3 2.9 10.7-6.2c5.9-3.4 12.5-7.2 14.7-8.4 2.2-1.3 8.7-5 14.5-8.3 5.7-3.4 10.5-6 10.6-5.9.1.1 8.8 15.3 19.4 33.7 10.5 18.4 21 36.6 23.3 40.4 2.3 3.8 4.9 8.3 5.8 10 1.4 2.7 9.2 8.2 16.4 11.6 1.1.6 2.7 1.4 3.5 2 4.1 2.7 29.4 17 30.1 17 .5 0 .9.4.9 1 0 .5.4 1 .9 1s10.8 5.7 22.8 12.6c12 7 23.3 13.5 25.1 14.5l3.3 1.9 12.2-7.1c6.7-4 13.7-8 15.5-9.1 6.1-3.4 16.6-9.4 29.1-16.6 6.9-4 12.7-7.2 13-7.2.2 0 1.2-.6 2-1.4.9-.7 3.6-2.5 6.1-3.8 5-2.7 41.4-23.7 49.8-28.7 2.9-1.7 5.5-3.1 5.7-3.1.3 0 2.8-1.5 5.7-3.3 2.9-1.9 6-3.7 6.8-4 .8-.4 2.9-1.5 4.5-2.5 1.7-1 5-3 7.5-4.4 2.5-1.4 12.8-7.4 23-13.3 10.1-5.8 20.2-11.7 22.5-13 2.2-1.2 13.9-8 26-15s24-13.9 26.5-15.3c2.5-1.4 7.8-4.5 11.8-6.9 4.1-2.4 7.5-4.3 7.7-4.3.2 0 4-2.3 8.5-5 4.5-2.8 8.3-5 8.6-5 .2 0 2.6-1.4 5.4-3.1l5-3.1v-57.6c0-31.8-.4-58.2-.8-58.8-.4-.7-3.6-2.8-7.2-4.8-3.6-2.1-7.8-4.5-9.5-5.5-3.9-2.3-42.9-24.8-47.5-27.4-1.9-1-10.2-5.9-18.5-10.7-8.2-4.8-15.6-8.9-16.4-9.2-1.3-.4 1-2.1 8.4-6.3 3.3-1.9 41.2-23.8 52-30 5.5-3.2 11.6-6.7 13.5-7.8 1.9-1 7.2-4.1 11.8-6.8 4.5-2.7 8.6-4.9 9-4.9.4-.1 1.7-.9 3-1.9l2.2-1.9v-58.6c0-36.8-.4-58.6-1-58.6-.5 0-5-2.5-10.1-5.5-5-3-9.3-5.5-9.4-5.5-.1 0-8-4.5-17.4-10-9.5-5.5-17.6-10-18.1-10-.6 0-1-.5-1-1 0-.6-.4-1-1-1-.5 0-5.5-2.7-11.1-6-5.5-3.3-10.2-6-10.4-6-.2 0-3.6-1.9-7.7-4.3-4-2.4-9.3-5.5-11.8-6.9-2.5-1.4-8.5-4.9-13.5-7.8-4.9-2.9-10.3-6-12-7-1.6-.9-11.8-6.8-22.5-13s-21.5-12.4-24-13.8c-2.5-1.4-12.4-7.1-22-12.7s-29.9-17.3-45-26c-15.1-8.8-34.5-19.9-43-24.8C351 .6 350 0 349.7.1c-.1 0-10.3 5.9-22.7 13.1z"/></svg>