<?xml version="1.0" encoding="utf-8"?>
<!-- Generator: Adobe Illustrator 24.0.0, SVG Export Plug-In . SVG Version: 6.00 Build 0)  -->
<svg version="1.1" xmlns="http://www.w3.org/2000/svg" xmlns:xlink="http://www.w3.org/1999/xlink" x="0px" y="0px"
	 viewBox="0 0 415.69 480" style="enable-background:new 0 0 415.69 480;" xml:space="preserve">
<style type="text/css">
	.st0{display:none;}
	.st1{display:inline;}
	.st2{fill:none;stroke:#231F20;stroke-width:0.1;stroke-miterlimit:10;}
	.st3{display:inline;fill:none;stroke:#231F20;stroke-miterlimit:10;}
	.st4{fill:#FFC1C9;}
	.st5{fill:#F3746D;}
	.st6{fill:#82E3E1;}
	.st7{fill:#2A87A9;}
	.st8{fill:#288797;}
	.st9{fill:#5BBEAA;}
	.st10{fill:#286871;}
	.st11{fill:#284F67;}
</style>
<g id="Grid" class="st0">
	<g class="st1">
		<polygon class="st2" points="207.85,0 640.86,250 207.85,500 -225.17,250 		"/>
		<line class="st2" x1="-216.51" y1="245" x2="216.51" y2="495"/>
		<line class="st2" x1="-207.85" y1="240" x2="225.17" y2="490"/>
		<line class="st2" x1="-199.18" y1="235" x2="233.83" y2="485"/>
		<line class="st2" x1="-190.52" y1="230" x2="242.49" y2="480"/>
		<line class="st2" x1="-181.86" y1="225" x2="251.15" y2="475"/>
		<line class="st2" x1="-173.2" y1="220" x2="259.81" y2="470"/>
		<line class="st2" x1="-164.54" y1="215" x2="268.47" y2="465"/>
		<line class="st2" x1="-155.88" y1="210" x2="277.13" y2="460"/>
		<line class="st2" x1="-147.22" y1="205" x2="285.79" y2="455"/>
		<line class="st2" x1="-138.56" y1="200" x2="294.45" y2="450"/>
		<line class="st2" x1="-129.9" y1="195" x2="303.11" y2="445"/>
		<line class="st2" x1="-121.24" y1="190" x2="311.77" y2="440"/>
		<line class="st2" x1="-112.58" y1="185" x2="320.43" y2="435"/>
		<line class="st2" x1="-103.92" y1="180" x2="329.09" y2="430"/>
		<line class="st2" x1="-95.26" y1="175" x2="337.75" y2="425"/>
		<line class="st2" x1="-86.6" y1="170" x2="346.41" y2="420"/>
		<line class="st2" x1="-77.94" y1="165" x2="355.07" y2="415"/>
		<line class="st2" x1="-69.28" y1="160" x2="363.73" y2="410"/>
		<line class="st2" x1="-60.62" y1="155" x2="372.39" y2="405"/>
		<line class="st2" x1="-51.96" y1="150" x2="381.05" y2="400"/>
		<line class="st2" x1="-43.3" y1="145" x2="389.71" y2="395"/>
		<line class="st2" x1="-34.64" y1="140" x2="398.37" y2="390"/>
		<line class="st2" x1="-25.98" y1="135" x2="407.03" y2="385"/>
		<line class="st2" x1="415.69" y1="380" x2="-17.32" y2="130"/>
		<line class="st2" x1="-8.66" y1="125" x2="424.35" y2="375"/>
		<line class="st2" x1="433.01" y1="370" x2="0" y2="120"/>
		<line class="st2" x1="8.66" y1="115" x2="441.67" y2="365"/>
		<line class="st2" x1="17.32" y1="110" x2="450.33" y2="360"/>
		<line class="st2" x1="25.98" y1="105" x2="459" y2="355"/>
		<line class="st2" x1="34.64" y1="100" x2="467.66" y2="350"/>
		<line class="st2" x1="43.3" y1="95" x2="476.32" y2="345"/>
		<line class="st2" x1="51.96" y1="90" x2="484.98" y2="340"/>
		<line class="st2" x1="60.62" y1="85" x2="493.64" y2="335"/>
		<line class="st2" x1="69.28" y1="80" x2="502.3" y2="330"/>
		<line class="st2" x1="77.94" y1="75" x2="510.96" y2="325"/>
		<line class="st2" x1="86.6" y1="70" x2="519.62" y2="320"/>
		<line class="st2" x1="95.26" y1="65" x2="528.28" y2="315"/>
		<line class="st2" x1="103.92" y1="60" x2="536.94" y2="310"/>
		<line class="st2" x1="112.58" y1="55" x2="545.6" y2="305"/>
		<line class="st2" x1="121.24" y1="50" x2="554.26" y2="300"/>
		<line class="st2" x1="129.9" y1="45" x2="562.92" y2="295"/>
		<line class="st2" x1="138.56" y1="40" x2="571.58" y2="290"/>
		<line class="st2" x1="147.22" y1="35" x2="580.24" y2="285"/>
		<line class="st2" x1="155.88" y1="30" x2="588.9" y2="280"/>
		<line class="st2" x1="164.54" y1="25" x2="597.56" y2="275"/>
		<line class="st2" x1="173.2" y1="20" x2="606.22" y2="270"/>
		<line class="st2" x1="181.87" y1="15" x2="614.88" y2="265"/>
		<line class="st2" x1="190.53" y1="10" x2="623.54" y2="260"/>
		<line class="st2" x1="199.19" y1="5" x2="632.2" y2="255"/>
		<line class="st2" x1="632.2" y1="245" x2="199.19" y2="495"/>
		<line class="st2" x1="623.54" y1="240" x2="190.53" y2="490"/>
		<line class="st2" x1="614.88" y1="235" x2="181.87" y2="485"/>
		<line class="st2" x1="606.22" y1="230" x2="173.21" y2="480"/>
		<line class="st2" x1="597.56" y1="225" x2="164.55" y2="475"/>
		<line class="st2" x1="588.9" y1="220" x2="155.89" y2="470"/>
		<line class="st2" x1="580.24" y1="215" x2="147.23" y2="465"/>
		<line class="st2" x1="571.58" y1="210" x2="138.57" y2="460"/>
		<line class="st2" x1="562.92" y1="205" x2="129.91" y2="455"/>
		<line class="st2" x1="554.26" y1="200" x2="121.25" y2="450"/>
		<line class="st2" x1="545.6" y1="195" x2="112.59" y2="445"/>
		<line class="st2" x1="536.94" y1="190" x2="103.93" y2="440"/>
		<line class="st2" x1="528.28" y1="185" x2="95.26" y2="435"/>
		<line class="st2" x1="519.62" y1="180" x2="86.6" y2="430"/>
		<line class="st2" x1="510.96" y1="175" x2="77.94" y2="425"/>
		<line class="st2" x1="502.3" y1="170" x2="69.28" y2="420"/>
		<line class="st2" x1="493.64" y1="165" x2="60.62" y2="415"/>
		<line class="st2" x1="484.97" y1="160" x2="51.96" y2="410"/>
		<line class="st2" x1="476.31" y1="155" x2="43.3" y2="405"/>
		<line class="st2" x1="467.65" y1="150" x2="34.64" y2="400"/>
		<line class="st2" x1="458.99" y1="145" x2="25.98" y2="395"/>
		<line class="st2" x1="450.33" y1="140" x2="17.32" y2="390"/>
		<line class="st2" x1="441.67" y1="135" x2="8.66" y2="385"/>
		<line class="st2" x1="433.01" y1="130" x2="0" y2="380"/>
		<line class="st2" x1="424.35" y1="125" x2="-8.66" y2="375"/>
		<line class="st2" x1="415.69" y1="120" x2="-17.32" y2="370"/>
		<line class="st2" x1="407.03" y1="115" x2="-25.98" y2="365"/>
		<line class="st2" x1="398.37" y1="110" x2="-34.64" y2="360"/>
		<line class="st2" x1="389.71" y1="105" x2="-43.3" y2="355"/>
		<line class="st2" x1="381.05" y1="100" x2="-51.96" y2="350"/>
		<line class="st2" x1="372.39" y1="95" x2="-60.62" y2="345"/>
		<line class="st2" x1="363.73" y1="90" x2="-69.28" y2="340"/>
		<line class="st2" x1="355.07" y1="85" x2="-77.94" y2="335"/>
		<line class="st2" x1="346.41" y1="80" x2="-86.6" y2="330"/>
		<line class="st2" x1="337.75" y1="75" x2="-95.26" y2="325"/>
		<line class="st2" x1="329.09" y1="70" x2="-103.92" y2="320"/>
		<line class="st2" x1="320.43" y1="65" x2="-112.58" y2="315"/>
		<line class="st2" x1="311.77" y1="60" x2="-121.24" y2="310"/>
		<line class="st2" x1="303.11" y1="55" x2="-129.9" y2="305"/>
		<line class="st2" x1="294.45" y1="50" x2="-138.56" y2="300"/>
		<line class="st2" x1="285.79" y1="45" x2="-147.22" y2="295"/>
		<line class="st2" x1="277.13" y1="40" x2="-155.88" y2="290"/>
		<line class="st2" x1="268.47" y1="35" x2="-164.54" y2="285"/>
		<line class="st2" x1="259.81" y1="30" x2="-173.2" y2="280"/>
		<line class="st2" x1="251.15" y1="25" x2="-181.86" y2="275"/>
		<line class="st2" x1="242.49" y1="20" x2="-190.52" y2="270"/>
		<line class="st2" x1="233.83" y1="15" x2="-199.18" y2="265"/>
		<line class="st2" x1="225.17" y1="10" x2="-207.85" y2="260"/>
		<line class="st2" x1="216.51" y1="5" x2="-216.51" y2="255"/>
	</g>
</g>
<g id="Layer_2" class="st0">
	<polygon class="st3" points="415.69,120 207.85,0 0,120 0,360 207.85,480 415.69,360 	"/>
</g>
<g id="Letter">
	<g id="_x37_">
		<polygon class="st4" points="415.69,120 207.85,240 138.57,200 277.13,120 138.57,40 207.85,0 		"/>
		<polygon class="st5" points="138.56,40 138.57,120 207.85,160 277.13,120 		"/>
	</g>
	<g id="C_1_">
		<polygon class="st6" points="207.85,240 207.85,480 415.69,360 415.69,280 277.13,360 277.13,280 415.69,200 415.69,120 		"/>
		<polygon class="st7" points="415.69,280 346.41,240 277.13,280 277.13,360 		"/>
	</g>
	<g id="W">
		<polygon class="st8" points="0,120 69.28,160 138.57,120 69.28,80 		"/>
		<polygon class="st9" points="0,120 0,360 69.28,400 103.92,380 138.57,440 207.85,480 207.85,240 138.57,200 138.57,360 
			103.92,300 69.28,320 69.28,160 		"/>
		<polygon class="st10" points="69.28,160 138.57,120 138.57,280 69.28,320 		"/>
		<polygon class="st11" points="103.92,300 138.57,280 138.57,360 		"/>
	</g>
</g>
</svg>
